PathFileType	4	(X/Y/Z)	SUBJ62_0_static_RCNL2025.trc
DataRate	CameraRate	NumFrames	NumMarkers	Units	OrigDataRate	OrigDataStartFrame	OrigNumFrames
100	100	4	25	mm	100	15	85
Frame#	Time	R_Shoulder			L_Shoulder			C7			J_Notch			R_Elbow			L_Elbow			R_Wrist			L_Wrist			R_Asis			L_Asis			Sacral			Thoracic			Sternum			R_Thigh_Lateral			R_Knee_Lateral			R_Shank_Lateral			R_Ankle_Lateral			R_Heel			R_Toe			L_Thigh_Lateral			L_Knee_Lateral			L_Shank_Lateral			L_Ankle_Lateral			L_Heel			L_Toe		
		X1	Y1	Z1	X2	Y2	Z2	X3	Y3	Z3	X4	Y4	Z4	X5	Y5	Z5	X6	Y6	Z6	X7	Y7	Z7	X8	Y8	Z8	X9	Y9	Z9	X10	Y10	Z10	X11	Y11	Z11	X12	Y12	Z12	X13	Y13	Z13	X14	Y14	Z14	X15	Y15	Z15	X16	Y16	Z16	X17	Y17	Z17	X18	Y18	Z18	X19	Y19	Z19	X20	Y20	Z20	X21	Y21	Z21	X22	Y22	Z22	X23	Y23	Z23	X24	Y24	Z24	X25	Y25	Z25
15	0.14000000	-297.999847	1299.464233	-69.986946	-306.992004	1301.310791	-407.882050	-368.631439	1359.174805	-241.984039	-235.374619	1276.009399	-244.352066	-358.838562	1014.330994	13.136337	-327.944427	1014.370239	-506.299957	-293.289673	802.539215	22.789132	-273.920837	801.859283	-509.319870	-241.160187	877.982300	-96.757393	-235.448776	866.568848	-356.428009	-412.157227	884.619995	-233.490936	-422.331116	1162.312866	-239.680389	-213.699661	1077.004761	-240.675125	-351.157074	500.325348	-17.675186	-355.603271	437.721802	-89.925758	-375.312073	260.291504	-47.412460	-373.417969	65.056381	-119.752838	-418.488556	47.204151	-166.077759	-267.407471	47.987812	-122.972710	-356.909546	479.884888	-409.131195	-378.685211	416.937012	-360.273743	-380.332062	224.051575	-394.819244	-370.238342	54.959965	-326.043274	-420.739105	51.205299	-274.811462	-259.702942	39.223568	-328.987091
16	0.15000000	-297.969055	1299.475342	-69.971016	-306.976746	1301.286011	-407.907593	-368.593414	1359.247192	-242.054611	-235.324646	1276.015625	-244.432938	-358.815674	1014.425293	13.078083	-327.939453	1014.363647	-506.391449	-293.303101	802.590424	22.833154	-273.911194	801.808258	-509.338165	-241.158112	877.944397	-96.796432	-235.403168	866.575745	-356.494843	-412.077789	884.662415	-233.564728	-422.302612	1162.357178	-239.726944	-213.605957	1077.012085	-240.789536	-351.240906	500.320923	-17.740744	-355.556641	437.713379	-89.948425	-375.306000	260.341156	-47.520565	-373.494263	65.031738	-119.804359	-418.514160	47.173386	-166.056549	-267.443054	47.954403	-123.027481	-356.920502	479.892395	-409.114960	-378.752045	416.967010	-360.273529	-380.302429	224.074295	-394.836395	-370.174561	54.899719	-326.096771	-420.663605	51.259041	-274.879608	-259.666016	39.248470	-329.028168
17	0.16000000	-297.956146	1299.524048	-70.021149	-306.837952	1301.321045	-407.922516	-368.511444	1359.241577	-242.106720	-235.139648	1276.019531	-244.389282	-358.760895	1014.447998	13.042798	-327.820435	1014.158997	-506.131927	-293.362900	802.581360	22.772874	-273.890701	801.811859	-509.352570	-241.166138	877.958862	-96.758682	-235.359406	866.541809	-356.550537	-412.065826	884.661255	-233.570541	-422.300262	1162.358521	-239.730194	-213.666885	1077.025635	-240.710800	-351.253235	500.353943	-17.755579	-355.504730	437.731293	-89.968399	-375.243225	260.410492	-47.440792	-373.371033	65.041046	-119.771385	-418.519958	47.297562	-166.077576	-267.409546	47.985756	-122.977119	-356.845856	480.059082	-409.345490	-378.692017	416.871582	-360.289368	-380.257751	224.069260	-394.839294	-370.202240	54.987667	-326.076080	-420.630035	51.228977	-274.901764	-259.639618	39.323997	-329.040161
18	0.17000000	-298.063141	1299.483887	-70.038193	-306.862396	1301.286011	-407.993103	-368.464966	1359.255371	-242.164474	-235.103714	1276.005981	-244.406769	-358.837006	1014.411865	12.974644	-327.861542	1014.304016	-506.457733	-293.447861	802.593048	22.795907	-273.915726	801.819366	-509.380783	-241.180450	877.957458	-96.727715	-235.353729	866.579529	-356.556458	-412.052124	884.649841	-233.591446	-422.227692	1162.348633	-239.774292	-213.653595	1076.910889	-240.775131	-351.254822	500.358673	-17.746174	-355.513245	437.770447	-89.964127	-375.297455	260.334625	-47.507565	-373.367737	65.062721	-119.761848	-418.481537	47.189095	-166.010086	-267.399200	47.979095	-122.975151	-356.891968	479.941376	-409.234833	-378.659393	416.895691	-360.405762	-380.232452	224.040802	-394.908173	-370.226624	54.972931	-326.097107	-420.687256	51.280689	-274.873138	-259.663055	39.252815	-329.031464
